<?xml version="1.0" standalone="no"?><!DOCTYPE svg PUBLIC "-//W3C//DTD SVG 1.1//EN" "http://www.w3.org/Graphics/SVG/1.1/DTD/svg11.dtd"><svg t="1721704651471" class="icon" viewBox="0 0 1024 1024" version="1.1" xmlns="http://www.w3.org/2000/svg" p-id="915" xmlns:xlink="http://www.w3.org/1999/xlink" width="200" height="200"><path d="M320 179.2m51.2 0l512 0q51.2 0 51.2 51.2l0 0q0 51.2-51.2 51.2l-512 0q-51.2 0-51.2-51.2l0 0q0-51.2 51.2-51.2Z" p-id="916"></path><path d="M320 460.8m51.2 0l512 0q51.2 0 51.2 51.2l0 0q0 51.2-51.2 51.2l-512 0q-51.2 0-51.2-51.2l0 0q0-51.2 51.2-51.2Z" p-id="917"></path><path d="M320 742.4m51.2 0l512 0q51.2 0 51.2 51.2l0 0q0 51.2-51.2 51.2l-512 0q-51.2 0-51.2-51.2l0 0q0-51.2 51.2-51.2Z" p-id="918"></path><path d="M89.6 179.2m51.2 0l25.6 0q51.2 0 51.2 51.2l0 0q0 51.2-51.2 51.2l-25.6 0q-51.2 0-51.2-51.2l0 0q0-51.2 51.2-51.2Z" p-id="919"></path><path d="M89.6 460.8m51.2 0l25.6 0q51.2 0 51.2 51.2l0 0q0 51.2-51.2 51.2l-25.6 0q-51.2 0-51.2-51.2l0 0q0-51.2 51.2-51.2Z" p-id="920"></path><path d="M89.6 742.4m51.2 0l25.6 0q51.2 0 51.2 51.2l0 0q0 51.2-51.2 51.2l-25.6 0q-51.2 0-51.2-51.2l0 0q0-51.2 51.2-51.2Z" p-id="921"></path></svg>